<?xml version="1.0" encoding="UTF-8" standalone="no"?>
<!DOCTYPE svg PUBLIC "-//W3C//DTD SVG 1.1//EN"
 "http://www.w3.org/Graphics/SVG/1.1/DTD/svg11.dtd">
<!-- Generated by graphviz version 13.0.0 (20250608.1624)
 -->
<!-- Title: G Pages: 1 -->
<svg width="2445pt" height="2087pt"
 viewBox="0.00 0.00 2445.00 2087.00" xmlns="http://www.w3.org/2000/svg" xmlns:xlink="http://www.w3.org/1999/xlink">
<g id="graph0" class="graph" transform="scale(1 1) rotate(0) translate(4 2083)">
<title>G</title>
<text xml:space="preserve" text-anchor="middle" x="1218.5" y="-2044.6" font-family="Helvetica,sans-Serif" font-size="32.00">What I learned in this project</text>
<g id="clust1" class="cluster">
<title>cluster_0</title>
<path fill="LightSteelBlue" stroke="#f0f0f0" d="M207,-1107C207,-1107 453,-1107 453,-1107 459,-1107 465,-1113 465,-1119 465,-1119 465,-2018.75 465,-2018.75 465,-2024.75 459,-2030.75 453,-2030.75 453,-2030.75 207,-2030.75 207,-2030.75 201,-2030.75 195,-2024.75 195,-2018.75 195,-2018.75 195,-1119 195,-1119 195,-1113 201,-1107 207,-1107"/>
<text xml:space="preserve" text-anchor="middle" x="330" y="-1996.35" font-family="Helvetica,sans-Serif" font-size="32.00">PyTorch Workflow</text>
</g>
<g id="clust2" class="cluster">
<title>cluster_1</title>
<path fill="SlateGrey" stroke="SlateGrey" d="M20,-670.75C20,-670.75 470,-670.75 470,-670.75 476,-670.75 482,-676.75 482,-682.75 482,-682.75 482,-1040 482,-1040 482,-1046 476,-1052 470,-1052 470,-1052 20,-1052 20,-1052 14,-1052 8,-1046 8,-1040 8,-1040 8,-682.75 8,-682.75 8,-676.75 14,-670.75 20,-670.75"/>
<text xml:space="preserve" text-anchor="middle" x="245" y="-1017.6" font-family="Helvetica,sans-Serif" font-size="32.00">ONNX Conversion &amp; Verification</text>
</g>
<g id="clust3" class="cluster">
<title>cluster_2</title>
<path fill="DarkOrange" stroke="DarkOrange" d="M559,-445.75C559,-445.75 906,-445.75 906,-445.75 912,-445.75 918,-451.75 918,-457.75 918,-457.75 918,-1040 918,-1040 918,-1046 912,-1052 906,-1052 906,-1052 559,-1052 559,-1052 553,-1052 547,-1046 547,-1040 547,-1040 547,-457.75 547,-457.75 547,-451.75 553,-445.75 559,-445.75"/>
<text xml:space="preserve" text-anchor="middle" x="732.5" y="-1017.6" font-family="Helvetica,sans-Serif" font-size="32.00">C++ ONNX Runtime App</text>
</g>
<g id="clust4" class="cluster">
<title>cluster_3</title>
<path fill="LightGreen" stroke="LightGreen" d="M968,-8C968,-8 2417,-8 2417,-8 2423,-8 2429,-14 2429,-20 2429,-20 2429,-835.25 2429,-835.25 2429,-841.25 2423,-847.25 2417,-847.25 2417,-847.25 968,-847.25 968,-847.25 962,-847.25 956,-841.25 956,-835.25 956,-835.25 956,-20 956,-20 956,-14 962,-8 968,-8"/>
<text xml:space="preserve" text-anchor="middle" x="1692.5" y="-812.85" font-family="Helvetica,sans-Serif" font-size="32.00">macOS Development</text>
</g>
<g id="clust5" class="cluster">
<title>cluster_c</title>
<polygon fill="none" stroke="#87ceeb" stroke-dasharray="5,2" points="2050,-218.5 2050,-346.75 2421,-346.75 2421,-218.5 2050,-218.5"/>
<text xml:space="preserve" text-anchor="middle" x="2235.5" y="-312.35" font-family="Helvetica,sans-Serif" font-size="32.00">Developing with C++ CLI</text>
</g>
<g id="clust6" class="cluster">
<title>cluster_s</title>
<polygon fill="none" stroke="#f4a460" stroke-dasharray="5,2" points="964,-16 964,-799 2042,-799 2042,-16 964,-16"/>
<text xml:space="preserve" text-anchor="middle" x="1503" y="-764.6" font-family="Helvetica,sans-Serif" font-size="32.00">Developing with Swift</text>
</g>
<!-- data -->
<g id="node1" class="node">
<title>data</title>
<polygon fill="#f0f0f0" stroke="black" points="456,-1982.5 204,-1982.5 204,-1910.5 456,-1910.5 456,-1982.5"/>
<text xml:space="preserve" text-anchor="middle" x="330" y="-1948.1" font-family="Helvetica,sans-Serif" font-size="22.00">European Cities</text>
<text xml:space="preserve" text-anchor="middle" x="330" y="-1925.6" font-family="Helvetica,sans-Serif" font-size="22.00">Geo&#45;Coordinates Data</text>
</g>
<!-- pytorch_script -->
<g id="node2" class="node">
<title>pytorch_script</title>
<polygon fill="#f0f0f0" stroke="black" points="456,-1801.5 204,-1801.5 204,-1729.5 456,-1729.5 456,-1801.5"/>
<text xml:space="preserve" text-anchor="middle" x="330" y="-1767.1" font-family="Helvetica,sans-Serif" font-size="22.00">PyTorch Script</text>
<text xml:space="preserve" text-anchor="middle" x="330" y="-1744.6" font-family="Helvetica,sans-Serif" font-size="22.00">(train, eval)</text>
</g>
<!-- data&#45;&gt;pytorch_script -->
<g id="edge1" class="edge">
<title>data&#45;&gt;pytorch_script</title>
<path fill="none" stroke="Blue" stroke-width="2.5" d="M330,-1910.14C330,-1883.04 330,-1845.35 330,-1815.38"/>
<polygon fill="Blue" stroke="Blue" stroke-width="2.5" points="333.5,-1815.58 330,-1805.58 326.5,-1815.58 333.5,-1815.58"/>
</g>
<!-- training -->
<g id="node3" class="node">
<title>training</title>
<polygon fill="#f0f0f0" stroke="black" points="456,-1599 204,-1599 204,-1523.5 456,-1523.5 456,-1599"/>
<text xml:space="preserve" text-anchor="middle" x="330" y="-1574.1" font-family="Helvetica,sans-Serif" font-size="22.00">Training Process</text>
<text xml:space="preserve" text-anchor="middle" x="330" y="-1551.6" font-family="Helvetica,sans-Serif" font-size="22.00">(Epochs, Architecture,</text>
<text xml:space="preserve" text-anchor="middle" x="330" y="-1529.1" font-family="Helvetica,sans-Serif" font-size="22.00"> Activation)</text>
</g>
<!-- pytorch_script&#45;&gt;training -->
<g id="edge2" class="edge">
<title>pytorch_script&#45;&gt;training</title>
<path fill="none" stroke="Blue" stroke-width="2.5" d="M330,-1729.27C330,-1697.2 330,-1649.46 330,-1613.23"/>
<polygon fill="Blue" stroke="Blue" stroke-width="2.5" points="333.5,-1613.25 330,-1603.25 326.5,-1613.25 333.5,-1613.25"/>
<text xml:space="preserve" text-anchor="middle" x="349.12" y="-1654.6" font-family="Times,serif" font-size="22.00">runs</text>
</g>
<!-- quantization -->
<g id="node4" class="node">
<title>quantization</title>
<polygon fill="#f0f0f0" stroke="black" points="456,-1393 204,-1393 204,-1317.5 456,-1317.5 456,-1393"/>
<text xml:space="preserve" text-anchor="middle" x="330" y="-1368.1" font-family="Helvetica,sans-Serif" font-size="22.00">Model 32&#45;bit model /</text>
<text xml:space="preserve" text-anchor="middle" x="330" y="-1345.6" font-family="Helvetica,sans-Serif" font-size="22.00"> Quantization</text>
<text xml:space="preserve" text-anchor="middle" x="330" y="-1323.1" font-family="Helvetica,sans-Serif" font-size="22.00">(16&#45;bit or 8&#45;bit)</text>
</g>
<!-- training&#45;&gt;quantization -->
<g id="edge3" class="edge">
<title>training&#45;&gt;quantization</title>
<path fill="none" stroke="Blue" stroke-width="2.5" d="M330,-1523.31C330,-1490.77 330,-1443.07 330,-1406.97"/>
<polygon fill="Blue" stroke="Blue" stroke-width="2.5" points="333.5,-1407.05 330,-1397.05 326.5,-1407.05 333.5,-1407.05"/>
<text xml:space="preserve" text-anchor="middle" x="375" y="-1448.6" font-family="Times,serif" font-size="22.00">optionally</text>
</g>
<!-- stored_model -->
<g id="node5" class="node">
<title>stored_model</title>
<polygon fill="#f0f0f0" stroke="black" points="456,-1187 204,-1187 204,-1115 456,-1115 456,-1187"/>
<text xml:space="preserve" text-anchor="middle" x="330" y="-1141.35" font-family="Helvetica,sans-Serif" font-size="22.00">Stored Model</text>
</g>
<!-- quantization&#45;&gt;stored_model -->
<g id="edge4" class="edge">
<title>quantization&#45;&gt;stored_model</title>
<path fill="none" stroke="Blue" stroke-width="2.5" d="M330,-1317.15C330,-1284.43 330,-1236.52 330,-1200.72"/>
<polygon fill="Blue" stroke="Blue" stroke-width="2.5" points="333.5,-1200.95 330,-1190.95 326.5,-1200.95 333.5,-1200.95"/>
<text xml:space="preserve" text-anchor="middle" x="355.5" y="-1242.6" font-family="Times,serif" font-size="22.00">stores</text>
</g>
<!-- onnx_conversion -->
<g id="node6" class="node">
<title>onnx_conversion</title>
<polygon fill="#f0f0f0" stroke="black" points="456,-1003.75 204,-1003.75 204,-931.75 456,-931.75 456,-1003.75"/>
<text xml:space="preserve" text-anchor="middle" x="330" y="-969.35" font-family="Helvetica,sans-Serif" font-size="22.00">Convert to ONNX</text>
<text xml:space="preserve" text-anchor="middle" x="330" y="-946.85" font-family="Helvetica,sans-Serif" font-size="22.00">Format</text>
</g>
<!-- stored_model&#45;&gt;onnx_conversion -->
<g id="edge5" class="edge">
<title>stored_model&#45;&gt;onnx_conversion</title>
<path fill="none" stroke="Blue" stroke-width="2.5" d="M330,-1114.62C330,-1086.93 330,-1048.1 330,-1017.47"/>
<polygon fill="Blue" stroke="Blue" stroke-width="2.5" points="333.5,-1017.82 330,-1007.82 326.5,-1017.82 333.5,-1017.82"/>
</g>
<!-- onnx_verification -->
<g id="node7" class="node">
<title>onnx_verification</title>
<polygon fill="#f0f0f0" stroke="black" points="286,-750.75 34,-750.75 34,-678.75 286,-678.75 286,-750.75"/>
<text xml:space="preserve" text-anchor="middle" x="160" y="-716.35" font-family="Helvetica,sans-Serif" font-size="22.00">ONNX Model</text>
<text xml:space="preserve" text-anchor="middle" x="160" y="-693.85" font-family="Helvetica,sans-Serif" font-size="22.00">Verification Eval Test</text>
</g>
<!-- onnx_conversion&#45;&gt;onnx_verification -->
<g id="edge6" class="edge">
<title>onnx_conversion&#45;&gt;onnx_verification</title>
<path fill="none" stroke="Blue" stroke-width="2.5" d="M285.58,-931.26C268.45,-916.05 249.62,-897.3 235.5,-877.75 210.07,-842.56 189.88,-797.44 176.81,-763.76"/>
<polygon fill="Blue" stroke="Blue" stroke-width="2.5" points="180.13,-762.65 173.32,-754.54 173.58,-765.13 180.13,-762.65"/>
<text xml:space="preserve" text-anchor="middle" x="267.75" y="-856.85" font-family="Times,serif" font-size="22.00">verifies</text>
</g>
<!-- c_plus_plus_app -->
<g id="node9" class="node">
<title>c_plus_plus_app</title>
<polygon fill="#f0f0f0" stroke="black" points="834,-750.75 582,-750.75 582,-678.75 834,-678.75 834,-750.75"/>
<text xml:space="preserve" text-anchor="middle" x="708" y="-716.35" font-family="Helvetica,sans-Serif" font-size="22.00">C++ CLI App</text>
<text xml:space="preserve" text-anchor="middle" x="708" y="-693.85" font-family="Helvetica,sans-Serif" font-size="22.00">(Xcode)</text>
</g>
<!-- onnx_conversion&#45;&gt;c_plus_plus_app -->
<g id="edge8" class="edge">
<title>onnx_conversion&#45;&gt;c_plus_plus_app</title>
<path fill="none" stroke="Blue" stroke-width="2.5" d="M325.42,-931.46C324.33,-906.37 327.71,-873.94 348.5,-855.25 359.88,-845.02 471.36,-851.72 486,-847.25 547.15,-828.57 609.13,-789.84 652,-759.22"/>
<polygon fill="Blue" stroke="Blue" stroke-width="2.5" points="653.92,-762.15 659.96,-753.45 649.81,-756.49 653.92,-762.15"/>
<text xml:space="preserve" text-anchor="middle" x="431.75" y="-856.85" font-family="Times,serif" font-size="22.00">uses ONNX model</text>
</g>
<!-- swift_cli -->
<g id="node12" class="node">
<title>swift_cli</title>
<polygon fill="#f0f0f0" stroke="black" points="1435,-298.5 1183,-298.5 1183,-226.5 1435,-226.5 1435,-298.5"/>
<text xml:space="preserve" text-anchor="middle" x="1309" y="-252.85" font-family="Helvetica,sans-Serif" font-size="22.00">Swift CLI App</text>
</g>
<!-- onnx_conversion&#45;&gt;swift_cli -->
<g id="edge22" class="edge">
<title>onnx_conversion&#45;&gt;swift_cli</title>
<path fill="none" stroke="Blue" stroke-width="2.5" d="M413.66,-931.43C446.18,-916.45 483.19,-897.81 515,-877.75 528.5,-869.23 528,-860.71 543,-855.25 562.79,-848.05 906.52,-861.53 922,-847.25 1053.85,-725.63 858.7,-591.68 963,-445.75 1024.17,-360.16 1085.62,-397.08 1178,-346.75 1200.46,-334.51 1224.28,-319.91 1245.35,-306.37"/>
<polygon fill="Blue" stroke="Blue" stroke-width="2.5" points="1247.09,-309.41 1253.58,-301.04 1243.28,-303.54 1247.09,-309.41"/>
<text xml:space="preserve" text-anchor="middle" x="1027.23" y="-592.6" font-family="Times,serif" font-size="22.00">uses ONNX model</text>
</g>
<!-- swift_app -->
<g id="node13" class="node">
<title>swift_app</title>
<polygon fill="#f0f0f0" stroke="black" points="1435,-96 1183,-96 1183,-24 1435,-24 1435,-96"/>
<text xml:space="preserve" text-anchor="middle" x="1309" y="-50.35" font-family="Helvetica,sans-Serif" font-size="22.00">Swift macOS App</text>
</g>
<!-- onnx_conversion&#45;&gt;swift_app -->
<g id="edge23" class="edge">
<title>onnx_conversion&#45;&gt;swift_app</title>
<path fill="none" stroke="Blue" stroke-width="2.5" d="M326.33,-931.46C321.61,-882.93 314,-792.82 314,-715.75 314,-715.75 314,-715.75 314,-261.5 314,-89.13 895.08,-63.12 1169.12,-60.43"/>
<polygon fill="Blue" stroke="Blue" stroke-width="2.5" points="1168.98,-63.94 1178.95,-60.35 1168.92,-56.94 1168.98,-63.94"/>
<text xml:space="preserve" text-anchor="middle" x="397.25" y="-480.1" font-family="Times,serif" font-size="22.00">uses ONNX model</text>
</g>
<!-- onnx_runtime_lib -->
<g id="node8" class="node">
<title>onnx_runtime_lib</title>
<polygon fill="#f0f0f0" stroke="black" points="889.88,-1003.75 576.12,-1003.75 576.12,-931.75 889.88,-931.75 889.88,-1003.75"/>
<text xml:space="preserve" text-anchor="middle" x="733" y="-969.35" font-family="Helvetica,sans-Serif" font-size="22.00">ONNX Runtime</text>
<text xml:space="preserve" text-anchor="middle" x="733" y="-946.85" font-family="Helvetica,sans-Serif" font-size="22.00">Library (Compiled for Mac OS)</text>
</g>
<!-- onnx_runtime_lib&#45;&gt;c_plus_plus_app -->
<g id="edge7" class="edge">
<title>onnx_runtime_lib&#45;&gt;c_plus_plus_app</title>
<path fill="none" stroke="Blue" stroke-width="2.5" d="M729.47,-931.32C725.13,-887.78 717.75,-813.67 712.88,-764.71"/>
<polygon fill="Blue" stroke="Blue" stroke-width="2.5" points="716.36,-764.37 711.89,-754.76 709.39,-765.06 716.36,-764.37"/>
<text xml:space="preserve" text-anchor="middle" x="776.72" y="-856.85" font-family="Times,serif" font-size="22.00">dependency</text>
</g>
<!-- swift_cpp_interop -->
<g id="node16" class="node">
<title>swift_cpp_interop</title>
<polygon fill="#f0f0f0" stroke="black" points="1991,-750.75 1739,-750.75 1739,-678.75 1991,-678.75 1991,-750.75"/>
<text xml:space="preserve" text-anchor="middle" x="1865" y="-716.35" font-family="Helvetica,sans-Serif" font-size="22.00">Swift/C++</text>
<text xml:space="preserve" text-anchor="middle" x="1865" y="-693.85" font-family="Helvetica,sans-Serif" font-size="22.00">Interoperability</text>
</g>
<!-- onnx_runtime_lib&#45;&gt;swift_cpp_interop -->
<g id="edge24" class="edge">
<title>onnx_runtime_lib&#45;&gt;swift_cpp_interop</title>
<path fill="none" stroke="Blue" stroke-width="2.5" d="M889.9,-960.17C1132.32,-947.97 1585.09,-916.49 1730,-847.25 1770.62,-827.84 1806.58,-791.3 1831.15,-761.66"/>
<polygon fill="Blue" stroke="Blue" stroke-width="2.5" points="1833.74,-764.02 1837.3,-754.04 1828.29,-759.62 1833.74,-764.02"/>
<text xml:space="preserve" text-anchor="middle" x="1798.33" y="-856.85" font-family="Times,serif" font-size="22.00">dependency for Swift</text>
</g>
<!-- test_on_data -->
<g id="node10" class="node">
<title>test_on_data</title>
<polygon fill="#f0f0f0" stroke="black" points="835.62,-525.75 580.38,-525.75 580.38,-453.75 835.62,-453.75 835.62,-525.75"/>
<text xml:space="preserve" text-anchor="middle" x="708" y="-491.35" font-family="Helvetica,sans-Serif" font-size="22.00">Test ONNX Model</text>
<text xml:space="preserve" text-anchor="middle" x="708" y="-468.85" font-family="Helvetica,sans-Serif" font-size="22.00">(using original eval data)</text>
</g>
<!-- c_plus_plus_app&#45;&gt;test_on_data -->
<g id="edge9" class="edge">
<title>c_plus_plus_app&#45;&gt;test_on_data</title>
<path fill="none" stroke="Blue" stroke-width="2.5" d="M708,-678.41C708,-640.98 708,-581.61 708,-539.68"/>
<polygon fill="Blue" stroke="Blue" stroke-width="2.5" points="711.5,-539.7 708,-529.7 704.5,-539.7 711.5,-539.7"/>
</g>
<!-- c_plus_plus_cli -->
<g id="node11" class="node">
<title>c_plus_plus_cli</title>
<polygon fill="#f0f0f0" stroke="black" points="2310,-298.5 2058,-298.5 2058,-226.5 2310,-226.5 2310,-298.5"/>
<text xml:space="preserve" text-anchor="middle" x="2184" y="-264.1" font-family="Helvetica,sans-Serif" font-size="22.00">C++ CLI Development</text>
<text xml:space="preserve" text-anchor="middle" x="2184" y="-241.6" font-family="Helvetica,sans-Serif" font-size="22.00">(macOS)</text>
</g>
<!-- swift_cli&#45;&gt;swift_app -->
<g id="edge10" class="edge">
<title>swift_cli&#45;&gt;swift_app</title>
<path fill="none" stroke="Blue" stroke-width="2.5" d="M1309,-226.12C1309,-193.86 1309,-145.91 1309,-109.97"/>
<polygon fill="Blue" stroke="Blue" stroke-width="2.5" points="1312.5,-110.15 1309,-100.15 1305.5,-110.15 1312.5,-110.15"/>
<text xml:space="preserve" text-anchor="middle" x="1380.25" y="-151.6" font-family="Times,serif" font-size="22.00">can be built into</text>
</g>
<!-- swift_package_manager -->
<g id="node14" class="node">
<title>swift_package_manager</title>
<polygon fill="#f0f0f0" stroke="black" points="1764,-525.75 1512,-525.75 1512,-453.75 1764,-453.75 1764,-525.75"/>
<text xml:space="preserve" text-anchor="middle" x="1638" y="-491.35" font-family="Helvetica,sans-Serif" font-size="22.00">Swift Package Manager</text>
<text xml:space="preserve" text-anchor="middle" x="1638" y="-468.85" font-family="Helvetica,sans-Serif" font-size="22.00">(SPM)</text>
</g>
<!-- swift_package_manager&#45;&gt;swift_cli -->
<g id="edge11" class="edge">
<title>swift_package_manager&#45;&gt;swift_cli</title>
<path fill="none" stroke="Blue" stroke-width="2.5" d="M1576.65,-453.4C1554.9,-438.78 1531.45,-420.4 1513.75,-399.75 1499.16,-382.73 1506.87,-370.57 1491,-354.75 1470.79,-334.61 1445.23,-318.1 1419.71,-304.93"/>
<polygon fill="Blue" stroke="Blue" stroke-width="2.5" points="1421.51,-301.92 1410.99,-300.61 1418.4,-308.19 1421.51,-301.92"/>
<text xml:space="preserve" text-anchor="middle" x="1573.38" y="-378.85" font-family="Times,serif" font-size="22.00">manages</text>
<text xml:space="preserve" text-anchor="middle" x="1573.38" y="-356.35" font-family="Times,serif" font-size="22.00">dependencies</text>
</g>
<!-- swift_package_manager&#45;&gt;swift_app -->
<g id="edge12" class="edge">
<title>swift_package_manager&#45;&gt;swift_app</title>
<path fill="none" stroke="Blue" stroke-width="2.5" d="M1639.3,-453.35C1640.07,-419.79 1639.8,-372.03 1633,-354.75 1587.6,-239.44 1468.38,-151.75 1387.93,-103.34"/>
<polygon fill="Blue" stroke="Blue" stroke-width="2.5" points="1390,-100.5 1379.61,-98.42 1386.43,-106.52 1390,-100.5"/>
<text xml:space="preserve" text-anchor="middle" x="1687.61" y="-264.1" font-family="Times,serif" font-size="22.00">manages</text>
<text xml:space="preserve" text-anchor="middle" x="1687.61" y="-241.6" font-family="Times,serif" font-size="22.00">dependencies</text>
</g>
<!-- swift_onnx_rt -->
<g id="node15" class="node">
<title>swift_onnx_rt</title>
<polygon fill="#f0f0f0" stroke="black" points="2034,-525.75 1782,-525.75 1782,-453.75 2034,-453.75 2034,-525.75"/>
<text xml:space="preserve" text-anchor="middle" x="1908" y="-491.35" font-family="Helvetica,sans-Serif" font-size="22.00">Swift ONNX Runtime</text>
<text xml:space="preserve" text-anchor="middle" x="1908" y="-468.85" font-family="Helvetica,sans-Serif" font-size="22.00">Wrapper</text>
</g>
<!-- swift_onnx_rt&#45;&gt;c_plus_plus_cli -->
<g id="edge21" class="edge">
<title>swift_onnx_rt&#45;&gt;c_plus_plus_cli</title>
<path fill="none" stroke="Blue" stroke-width="2.5" d="M1917.68,-453.42C1928.22,-422.1 1948.32,-377.85 1982.5,-354.75 2006.07,-338.82 2019.13,-356.08 2046,-346.75 2073.71,-337.13 2101.87,-321.43 2125.47,-306.24"/>
<polygon fill="Blue" stroke="Blue" stroke-width="2.5" points="2127.08,-309.36 2133.5,-300.93 2123.23,-303.52 2127.08,-309.36"/>
<text xml:space="preserve" text-anchor="middle" x="2052.25" y="-378.85" font-family="Times,serif" font-size="22.00">uses underlying</text>
<text xml:space="preserve" text-anchor="middle" x="2052.25" y="-356.35" font-family="Times,serif" font-size="22.00">C++ lib</text>
</g>
<!-- swift_onnx_rt&#45;&gt;swift_cli -->
<g id="edge13" class="edge">
<title>swift_onnx_rt&#45;&gt;swift_cli</title>
<path fill="none" stroke="Blue" stroke-width="2.5" d="M1835.5,-453.4C1802.24,-437.14 1762.33,-417.54 1726.5,-399.75 1686.62,-379.95 1678.53,-370.79 1637,-354.75 1576.51,-331.39 1507.63,-311.29 1448.66,-295.95"/>
<polygon fill="Blue" stroke="Blue" stroke-width="2.5" points="1449.68,-292.6 1439.13,-293.5 1447.94,-299.38 1449.68,-292.6"/>
<text xml:space="preserve" text-anchor="middle" x="1779.75" y="-367.6" font-family="Times,serif" font-size="22.00">dependency</text>
</g>
<!-- swift_onnx_rt&#45;&gt;swift_app -->
<g id="edge14" class="edge">
<title>swift_onnx_rt&#45;&gt;swift_app</title>
<path fill="none" stroke="Blue" stroke-width="2.5" d="M1896.73,-453.52C1876.6,-396.11 1829.12,-282.41 1751,-218.5 1663.92,-147.26 1542.16,-107.05 1448.48,-85.12"/>
<polygon fill="Blue" stroke="Blue" stroke-width="2.5" points="1449.38,-81.73 1438.85,-82.92 1447.82,-88.56 1449.38,-81.73"/>
<text xml:space="preserve" text-anchor="middle" x="1901.72" y="-252.85" font-family="Times,serif" font-size="22.00">dependency</text>
</g>
<!-- swift_cpp_interop&#45;&gt;c_plus_plus_cli -->
<g id="edge20" class="edge">
<title>swift_cpp_interop&#45;&gt;c_plus_plus_cli</title>
<path fill="none" stroke="Blue" stroke-width="2.5" d="M1991.27,-681.84C2022.83,-668.64 2054.16,-650.24 2077,-624.75 2157.24,-535.21 2177.41,-388.01 2182.41,-312.12"/>
<polygon fill="Blue" stroke="Blue" stroke-width="2.5" points="2185.88,-312.77 2182.96,-302.58 2178.89,-312.37 2185.88,-312.77"/>
<text xml:space="preserve" text-anchor="middle" x="2205.52" y="-480.1" font-family="Times,serif" font-size="22.00">bridges to</text>
</g>
<!-- swift_cpp_interop&#45;&gt;swift_onnx_rt -->
<g id="edge15" class="edge">
<title>swift_cpp_interop&#45;&gt;swift_onnx_rt</title>
<path fill="none" stroke="Blue" stroke-width="2.5" d="M1871.81,-678.41C1879.05,-640.9 1890.53,-581.35 1898.62,-539.41"/>
<polygon fill="Blue" stroke="Blue" stroke-width="2.5" points="1902.05,-540.12 1900.5,-529.64 1895.17,-538.79 1902.05,-540.12"/>
<text xml:space="preserve" text-anchor="middle" x="1981.85" y="-603.85" font-family="Times,serif" font-size="22.00">enables calls to</text>
<text xml:space="preserve" text-anchor="middle" x="1981.85" y="-581.35" font-family="Times,serif" font-size="22.00">C++ ONNX runtime</text>
</g>
<!-- xcode_dev -->
<g id="node17" class="node">
<title>xcode_dev</title>
<polygon fill="#f0f0f0" stroke="black" points="1224,-525.75 972,-525.75 972,-453.75 1224,-453.75 1224,-525.75"/>
<text xml:space="preserve" text-anchor="middle" x="1098" y="-480.1" font-family="Helvetica,sans-Serif" font-size="22.00">Xcode Development</text>
</g>
<!-- xcode_dev&#45;&gt;swift_cli -->
<g id="edge16" class="edge">
<title>xcode_dev&#45;&gt;swift_cli</title>
<path fill="none" stroke="Blue" stroke-width="2.5" d="M1130.97,-453.55C1167.56,-414.49 1226.71,-351.35 1266.69,-308.67"/>
<polygon fill="Blue" stroke="Blue" stroke-width="2.5" points="1269.05,-311.27 1273.33,-301.58 1263.94,-306.49 1269.05,-311.27"/>
<text xml:space="preserve" text-anchor="middle" x="1240.77" y="-367.6" font-family="Times,serif" font-size="22.00">IDE</text>
</g>
<!-- xcode_dev&#45;&gt;swift_app -->
<g id="edge17" class="edge">
<title>xcode_dev&#45;&gt;swift_app</title>
<path fill="none" stroke="Blue" stroke-width="2.5" d="M1095.85,-453.63C1094.08,-399.77 1096.8,-294.99 1137.25,-218.5 1161.78,-172.11 1205.54,-132.3 1242.75,-104.31"/>
<polygon fill="Blue" stroke="Blue" stroke-width="2.5" points="1244.51,-107.36 1250.5,-98.61 1240.37,-101.72 1244.51,-107.36"/>
<text xml:space="preserve" text-anchor="middle" x="1155.62" y="-252.85" font-family="Times,serif" font-size="22.00">IDE</text>
</g>
<!-- outside_xcode -->
<g id="node18" class="node">
<title>outside_xcode</title>
<polygon fill="#f0f0f0" stroke="black" points="1494,-525.75 1242,-525.75 1242,-453.75 1494,-453.75 1494,-525.75"/>
<text xml:space="preserve" text-anchor="middle" x="1368" y="-491.35" font-family="Helvetica,sans-Serif" font-size="22.00">Outside Xcode</text>
<text xml:space="preserve" text-anchor="middle" x="1368" y="-468.85" font-family="Helvetica,sans-Serif" font-size="22.00">(Terminal/VS Code)</text>
</g>
<!-- outside_xcode&#45;&gt;swift_cli -->
<g id="edge18" class="edge">
<title>outside_xcode&#45;&gt;swift_cli</title>
<path fill="none" stroke="Blue" stroke-width="2.5" d="M1338.47,-453.43C1327.37,-437.96 1316.04,-418.97 1310.25,-399.75 1301.78,-371.62 1301.24,-338.72 1302.92,-312.3"/>
<polygon fill="Blue" stroke="Blue" stroke-width="2.5" points="1306.39,-312.76 1303.7,-302.52 1299.41,-312.2 1306.39,-312.76"/>
<text xml:space="preserve" text-anchor="middle" x="1400.62" y="-367.6" font-family="Times,serif" font-size="22.00">alternative toolchain</text>
</g>
<!-- public_spm -->
<g id="node19" class="node">
<title>public_spm</title>
<polygon fill="#f0f0f0" stroke="black" points="1721,-750.75 1469,-750.75 1469,-678.75 1721,-678.75 1721,-750.75"/>
<text xml:space="preserve" text-anchor="middle" x="1595" y="-716.35" font-family="Helvetica,sans-Serif" font-size="22.00">Public GitHub</text>
<text xml:space="preserve" text-anchor="middle" x="1595" y="-693.85" font-family="Helvetica,sans-Serif" font-size="22.00">Swift Package</text>
</g>
<!-- public_spm&#45;&gt;swift_package_manager -->
<g id="edge19" class="edge">
<title>public_spm&#45;&gt;swift_package_manager</title>
<path fill="none" stroke="Blue" stroke-width="2.5" d="M1601.81,-678.41C1609.05,-640.9 1620.53,-581.35 1628.62,-539.41"/>
<polygon fill="Blue" stroke="Blue" stroke-width="2.5" points="1632.05,-540.12 1630.5,-529.64 1625.17,-538.79 1632.05,-540.12"/>
<text xml:space="preserve" text-anchor="middle" x="1698.35" y="-603.85" font-family="Times,serif" font-size="22.00">can be referenced</text>
<text xml:space="preserve" text-anchor="middle" x="1698.35" y="-581.35" font-family="Times,serif" font-size="22.00">via URL</text>
</g>
</g>
</svg>
